<svg width="24" height="24" viewBox="0 0 24 24" fill="none" xmlns="http://www.w3.org/2000/svg">
<path fill-rule="evenodd" clip-rule="evenodd" d="M17.701 5.3065C16.0797 3.7857 14.3238 3 12.1 3C9.87622 3 8.05272 3.84907 6.49899 5.3065C4.90184 6.80466 4 8.84884 4 10.9856L4.01301 17.9643C4.074 19.2665 4.98596 20.134 6.1572 20.134C6.74729 20.134 7.12684 19.9304 7.48004 19.7409C7.85484 19.5399 8.19997 19.3547 8.73554 19.4457C9.12712 19.5122 9.4312 19.7642 9.77184 20.0466C10.3026 20.4865 10.9222 21 12.1 21C13.2689 21 13.8739 20.4966 14.3994 20.0594C14.7432 19.7733 15.053 19.5156 15.4645 19.4457C16 19.3547 16.3452 19.5399 16.72 19.7409C17.0732 19.9304 17.4527 20.134 18.0428 20.134C19.2591 20.134 20.096 19.211 20.187 17.9643L20.2 10.9856C20.2 8.84884 19.2982 6.80466 17.701 5.3065ZM9.28529 14.2745C9.58127 13.9603 10.0716 13.9126 10.4255 14.1481L10.5109 14.2128C10.5838 14.2755 10.7509 14.3931 10.9856 14.5141C11.897 14.9843 12.7918 14.9843 13.6891 14.2128C14.0453 13.9065 14.5941 13.9341 14.9147 14.2745C15.2354 14.6148 15.2065 15.139 14.8502 15.4454C13.3368 16.7466 11.6602 16.7466 10.1609 15.9732C9.79284 15.7833 9.51795 15.5899 9.3498 15.4454C8.99353 15.139 8.96465 14.6148 9.28529 14.2745ZM7.0375 10.5C7.0375 9.67157 7.71747 9 8.55625 9C9.39503 9 10.075 9.67157 10.075 10.5C10.075 11.3284 9.39503 12 8.55625 12C7.71747 12 7.0375 11.3284 7.0375 10.5ZM15.4645 9C14.6257 9 13.9457 9.67157 13.9457 10.5C13.9457 11.3284 14.6257 12 15.4645 12C16.3033 12 16.9832 11.3284 16.9832 10.5C16.9832 9.67157 16.3033 9 15.4645 9Z" fill="#7367F0"/>
</svg>
